<svg xmlns="http://www.w3.org/2000/svg" xmlns:xlink="http://www.w3.org/1999/xlink" width="455.4" height="139.8" viewBox="0 0 455.4 139.8"><defs><clipPath id="a"><rect y="44" width="455.4" height="139.8" fill="none"/></clipPath></defs><g transform="translate(0 -44)" clip-path="url(#a)" style="isolation:isolate"><g transform="translate(-25 -214)"><g transform="translate(-220 -139.2)"><g transform="translate(245 397.2)"><path d="M453.55-1l-9.737,17.24L435.351,31.2,374.456,139H-1V-1Z" transform="translate(1 1)"/></g><path d="M-1,139H484.4v.01H-1Z" transform="translate(246 360.447)" fill="rgba(0,0,0,0)"/><text transform="translate(408.878 485.725)" fill="#fff" font-size="57" font-family="SegoeUI-Light, Segoe UI" font-weight="300"><tspan x="0" y="0">ovid-19</tspan></text><text transform="translate(393.252 509.769)" fill="#fff" font-size="18.66" font-family="SegoeUI-Bold, Segoe UI" font-weight="700"><tspan x="0" y="0">TRACKING CENTER</tspan></text><path d="M382.44,116.43,430.09,31.2l8.36-14.96M369.83,139l-.01.01L362,153" transform="translate(251.48 364.129)" fill="rgba(0,0,0,0)"/><path d="M457-17,448.07-1l-9.62,17.24L430.09,31.2,369.93,139l-.01.01L361,155" transform="translate(251.48 370.2)" fill="rgba(0,0,0,0)"/><text transform="translate(363 485)" fill="#bdc4f6" font-size="139" font-family="Pristina-Regular, Pristina"><tspan x="0" y="0">c</tspan></text><line x2="1" y2="91" transform="translate(337.5 425.64)" fill="none" stroke="#0b72b9" stroke-width="5"/><g transform="translate(257.6 433.141)"><path d="M61.419,26.125a2.023,2.023,0,0,0-1.981,2.063V30.25H53.985a23.755,23.755,0,0,0-4.663-11.706l3.858-4.017L54.734,15.9a1.926,1.926,0,0,0,2.8,0,2.123,2.123,0,0,0,0-2.917L50.932,6.1a1.926,1.926,0,0,0-2.8,0,2.123,2.123,0,0,0,0,2.917l1.315,1.617-3.859,4.017A21.865,21.865,0,0,0,34.342,9.8V4.125h1.981A2.023,2.023,0,0,0,38.3,2.062,2.023,2.023,0,0,0,36.323,0H27.077A2.023,2.023,0,0,0,25.1,2.063a2.023,2.023,0,0,0,1.981,2.062h1.981V9.8a21.865,21.865,0,0,0-11.245,4.853l-3.859-4.017L15.27,9.021a2.123,2.123,0,0,0,0-2.917,1.926,1.926,0,0,0-2.8,0L6.016,12.979a2.123,2.123,0,0,0,0,2.917,1.926,1.926,0,0,0,2.8,0l1.4-1.369,3.858,4.017A23.755,23.755,0,0,0,9.415,30.25H3.962V28.188a2.023,2.023,0,0,0-1.981-2.062A2.023,2.023,0,0,0,0,28.188v9.625a2.023,2.023,0,0,0,1.981,2.063,2.023,2.023,0,0,0,1.981-2.062V35.75H9.415a23.755,23.755,0,0,0,4.663,11.706L10.22,51.473,8.666,50.1a1.926,1.926,0,0,0-2.8,0,2.123,2.123,0,0,0,0,2.917l6.6,6.875a1.926,1.926,0,0,0,2.8,0,2.123,2.123,0,0,0,0-2.917l-1.315-1.617,3.859-4.017A21.865,21.865,0,0,0,29.058,56.2v5.676H27.077a2.064,2.064,0,0,0,0,4.125h9.246a2.064,2.064,0,0,0,0-4.125H34.342V56.2a21.865,21.865,0,0,0,11.245-4.853l3.859,4.017L48.13,56.979a2.123,2.123,0,0,0,0,2.917,1.926,1.926,0,0,0,2.8,0l6.6-6.875a2.123,2.123,0,0,0,0-2.917,1.926,1.926,0,0,0-2.8,0l-1.553,1.369-3.858-4.017A23.755,23.755,0,0,0,53.985,35.75h5.452v2.063a1.983,1.983,0,1,0,3.963,0V28.188a2.023,2.023,0,0,0-1.982-2.062ZM24.435,27.5a4.816,4.816,0,1,1,4.623-4.812A4.721,4.721,0,0,1,24.435,27.5Zm15.19,17.875a2.752,2.752,0,1,1,2.642-2.75,2.7,2.7,0,0,1-2.642,2.75Z" fill="#ffba60"/></g></g><rect width="455.4" height="139.8" transform="translate(25 258)" fill="none"/></g></g></svg>